<svg width="34" height="32" viewBox="0 0 34 32" fill="none" xmlns="http://www.w3.org/2000/svg">
<path fill-rule="evenodd" clip-rule="evenodd" d="M7 16V14C7 11.2386 9.23858 9 12 9C14.7614 9 17 11.2386 17 14V16H20C20.5523 16 21 16.4477 21 17V29C21 29.5523 20.5523 30 20 30H4C3.44772 30 3 29.5523 3 29V17C3 16.4477 3.44772 16 4 16H7ZM7 18H5V28H19V18H17V20H15V18H9V20H7V18ZM15 14V16H9V14C9 12.3431 10.3431 11 12 11C13.6569 11 15 12.3431 15 14Z" fill="#F1B301"/>
<g clip-path="url(#clip0_14537_2)">
<path d="M33 10C33 14.9706 28.9706 19 24 19C19.0294 19 15 14.9706 15 10C15 5.02944 19.0294 1 24 1C28.9706 1 33 5.02944 33 10Z" fill="#F1B301" stroke="#800A7A" stroke-width="2"/>
<path d="M24.2564 14.0994C25.8118 14.0994 26.9446 13.2081 26.9411 11.9794C26.9446 11.0703 26.3764 10.4169 25.3572 10.2713V10.2145C26.1456 10.044 26.6747 9.4581 26.6712 8.64134C26.6747 7.53338 25.7301 6.62784 24.2777 6.62784C22.8643 6.62784 21.7706 7.46946 21.7422 8.6875H23.0099C23.0312 8.0767 23.5994 7.69673 24.2706 7.69673C24.9489 7.69673 25.3999 8.10866 25.3963 8.71946C25.3999 9.35511 24.8743 9.7777 24.1214 9.7777H23.4787V10.7933H24.1214C25.0412 10.7933 25.5881 11.255 25.5845 11.9119C25.5881 12.5547 25.0305 12.995 24.2528 12.995C23.5213 12.995 22.9567 12.6151 22.9247 12.022H21.5895C21.625 13.2507 22.7223 14.0994 24.2564 14.0994Z" fill="white"/>
</g>
<defs>
<clipPath id="clip0_14537_2">
<rect width="20" height="20" fill="white" transform="translate(14)"/>
</clipPath>
</defs>
</svg>
